<svg xmlns="http://www.w3.org/2000/svg" xmlns:xlink="http://www.w3.org/1999/xlink"><defs><style>.cls-1{fill:#fff;}</style><style>.cls-1{fill:#fff;}</style><style>.cls-1{fill:#fff;}</style></defs><symbol id="facebook" viewBox="0 0 155 155"><g style="enable-background:new 0 0 155 155;">
<g>
	<path fill="#ffffff" d="M89.584,155.139V84.378h23.742l3.562-27.585H89.584V39.184
		c0-7.984,2.208-13.425,13.67-13.425l14.595-0.006V1.08C115.325,0.752,106.661,0,96.577,0C75.52,0,61.104,12.853,61.104,36.452
		v20.341H37.29v27.585h23.814v70.761H89.584z"/>
</g>
</g></symbol><symbol id="handshake" viewBox="0 0 489.9 322.85"><title>handshake</title><path class="cls-1" d="M1,250.77a9.69,9.69,0,0,0,5.7,5l62.6,21.5a8.92,8.92,0,0,0,3.2.5,10,10,0,0,0,9.4-6.7L131,127.77l2.5.9a50.78,50.78,0,0,0,39-2.2l6.1-3a30.68,30.68,0,0,1,23.4-1.4l114.2,39.4c-1.2,4.4-3.5,9.5-7.5,12.3-4.6,3.2-11.7,3.2-21,0l-51.2-17.5a9.91,9.91,0,0,0-7.9.7,10.13,10.13,0,0,0-4.9,6.2c-.1.3-7.3,26.7-29.5,38.6-14,7.5-31.5,7.7-52,.7a9.93,9.93,0,1,0-6.4,18.8c12,4.1,23.4,6.2,34,6.2a70.87,70.87,0,0,0,33.9-8.3c20-10.8,30.6-29.4,35.5-40.9l42,14.4c15.6,5.3,28.6,4.5,38.7-2.5,15.9-11,17-32.5,17.1-34.9a10.12,10.12,0,0,0-6.7-9.7l-122-42.1a50.71,50.71,0,0,0-38.6,2.4l-6.1,3a31,31,0,0,1-23.7,1.4l-10.1-3.6a6.63,6.63,0,0,0-1.9-.9l-62.3-21.7A9.91,9.91,0,0,0,53,90.27l-52.5,153A10.29,10.29,0,0,0,1,250.77ZM68.59,106l43.8,15-46,134.3-43.8-15Z" transform="translate(0 -83.53)"/><path class="cls-1" d="M104.09,341.47a29,29,0,0,0,25.1,16.2,29.83,29.83,0,0,0,2.9,12.7,28.53,28.53,0,0,0,16.7,14.7,28.39,28.39,0,0,0,22.1-1.4l5.2-2.6a30,30,0,0,0,2.7,9,28.53,28.53,0,0,0,16.7,14.7,28.39,28.39,0,0,0,22.1-1.4l113.7-55.7a292.75,292.75,0,0,0,69.6-47.5l25.4-23.3,58.1-28.4a9.85,9.85,0,0,0,4.5-13.2L418.09,90a9.92,9.92,0,0,0-13.3-4.5l-59.4,29.1a9.85,9.85,0,0,0-4.5,13.2l67.8,138.6-21,19.3a276.24,276.24,0,0,1-64.9,44.3l-113.7,55.7a9.19,9.19,0,0,1-7.1.4,9.42,9.42,0,0,1-5.3-4.7,9.19,9.19,0,0,1-.4-7.1A9.42,9.42,0,0,1,201,369l63.6-31.1a9.86,9.86,0,0,0-8.7-17.7l-63.6,31.1h0l-30,14.7a9.19,9.19,0,0,1-7.1.4,9.42,9.42,0,0,1-5.3-4.7,9.19,9.19,0,0,1-.4-7.1,9.42,9.42,0,0,1,4.7-5.3l91.2-44.6a9.86,9.86,0,0,0-8.7-17.7l-102.5,50.1a9.39,9.39,0,0,1-12.4-4.2,9.19,9.19,0,0,1-.4-7.1,9.42,9.42,0,0,1,4.7-5.3l40.4-19.8h0L219,275a9.86,9.86,0,0,0-8.7-17.7l-81.7,40a9.26,9.26,0,0,1-8.2-16.6l43.4-21.2a9.86,9.86,0,0,0-8.7-17.7L111.69,263a29.06,29.06,0,0,0-5.1,49A28.58,28.58,0,0,0,104.09,341.47ZM363,128l41.6-20.4L467,235.07l-41.6,20.4Z" transform="translate(0 -83.53)"/></symbol><symbol id="like" viewBox="0 0 467.52 488.6"><title>like</title><path class="cls-1" d="M475.21,188.1a25.12,25.12,0,0,0-11-33.8l-54-27.4a5.16,5.16,0,0,1-2.8-3.9L398,63.2A25,25,0,0,0,373.21,42a26.93,26.93,0,0,0-4,.3l-59.8,9.5a5.23,5.23,0,0,1-4.6-1.5L262.11,7.4a25.11,25.11,0,0,0-35.6,0l-42.8,42.8a5.46,5.46,0,0,1-3.8,1.6,2,2,0,0,1-.8-.1l-59.8-9.5a26.93,26.93,0,0,0-4-.3,25,25,0,0,0-24.8,21.2l-9.4,59.8a5.4,5.4,0,0,1-2.8,3.9l-54,27.4a24.77,24.77,0,0,0-12.5,14.6,25.13,25.13,0,0,0,1.5,19.2l27.5,53.9a5.1,5.1,0,0,1,0,4.8l-27.5,53.9a25.12,25.12,0,0,0,11,33.8l54,27.4a5.16,5.16,0,0,1,2.8,3.9l9.4,59.8a25,25,0,0,0,24.8,21.2,26.93,26.93,0,0,0,4-.3l59.8-9.5a5.23,5.23,0,0,1,4.6,1.5l42.8,42.8a25.11,25.11,0,0,0,35.6,0l42.8-42.8a5.23,5.23,0,0,1,4.6-1.5l59.8,9.5a26.93,26.93,0,0,0,4,.3,25,25,0,0,0,24.8-21.2l9.4-59.8a5.4,5.4,0,0,1,2.8-3.9l54-27.4a24.77,24.77,0,0,0,12.5-14.6,25.13,25.13,0,0,0-1.5-19.2l-27.5-53.9a5.1,5.1,0,0,1,0-4.8ZM430,255.8l27.5,53.9a5.31,5.31,0,0,1,.3,4.1,4.9,4.9,0,0,1-2.7,3.1l-54,27.4a25,25,0,0,0-13.4,18.5l-9.4,59.8a5.33,5.33,0,0,1-6.1,4.4l-59.8-9.5a26,26,0,0,0-4-.3,25,25,0,0,0-17.8,7.4l-42.5,42.8a5.44,5.44,0,0,1-7.5,0l-42.8-42.8a25.39,25.39,0,0,0-17.8-7.4,26.93,26.93,0,0,0-4,.3l-59.8,9.5a5.33,5.33,0,0,1-6.1-4.4l-9.4-59.8a25.19,25.19,0,0,0-13.4-18.5l-54-27.4a5.2,5.2,0,0,1-2.7-3.1,5.8,5.8,0,0,1,.3-4.1l27.5-53.9a25,25,0,0,0,0-22.9L30.91,179a5.31,5.31,0,0,1-.3-4.1,4.9,4.9,0,0,1,2.7-3.1l54-27.4a25,25,0,0,0,13.4-18.5l9.4-59.8a5.33,5.33,0,0,1,6.1-4.4L176,71.2a26,26,0,0,0,4,.3h0a25,25,0,0,0,17.8-7.4l42.7-42.7a5.44,5.44,0,0,1,7.5,0l42.8,42.8a24.8,24.8,0,0,0,17.8,7.4,26.93,26.93,0,0,0,4-.3l59.8-9.5a5.39,5.39,0,0,1,6.1,4.4l9.4,59.8a25.19,25.19,0,0,0,13.4,18.5l54,27.4A5.2,5.2,0,0,1,458,175a5.31,5.31,0,0,1-.3,4.1L430.21,233A24.81,24.81,0,0,0,430,255.8Z" transform="translate(-10.54 0)"/><path class="cls-1" d="M322.51,184.7h-44.1V154.1c0-16.2-4.9-28-14.6-35.1-14.9-11-34.4-5.3-36.6-4.6a9.87,9.87,0,0,0-6.9,9.4v39.1c0,27.5-32.8,37.2-34.1,37.6a11.92,11.92,0,0,0-2,.8,19.8,19.8,0,0,0-11.7-3.9h-28.3a19.53,19.53,0,0,0-19.5,19.5v97.7a19.53,19.53,0,0,0,19.5,19.5h28.3a19.87,19.87,0,0,0,12.7-4.7,35.37,35.37,0,0,0,22.6,8.2h95.8c23.2,0,38.7-12.8,41.4-34.2l12.9-81.8a7.57,7.57,0,0,0,.1-1.5A35.49,35.49,0,0,0,322.51,184.7ZM172.31,314.5h-27.8V217.3h27.8Zm153.2-13.8v.3c-.6,4.6-2.1,17-21.8,17h-95.8a15.83,15.83,0,0,1-15.8-15.8V219.5c5.6-1.7,48-15.8,48-56.5V132.2c4-.2,8.7.3,12,2.8,4.3,3.2,6.4,9.6,6.4,19.1v40.5a9.86,9.86,0,0,0,9.9,9.9h54a15.68,15.68,0,0,1,15.7,15.1Z" transform="translate(-10.54 0)"/></symbol><symbol id="russia" viewBox="0 0 64 64"><g fill="none">
<path fill-rule="evenodd" clip-rule="evenodd" d="M55.4854 50.019C50.315 56.7479 42.3177 61.1914 33.2698 61.5733C29.3343 59.6405 26.2679 56.0287 24.051 52.0005C28.1361 51.9653 32.4879 51.3884 36.8783 50.212C45.2549 47.9675 52.4253 43.9206 57.2108 39.1934C57.4989 38.9088 57.7791 38.6209 58.0509 38.33C58.289 40.5099 58.195 42.6485 57.6755 44.5876L57.66 44.6454L57.6503 44.7045C57.4915 45.6762 56.8567 47.7495 55.4854 50.019ZM57.4689 51.3764C61.5668 45.9983 64 39.2833 64 32C64 30.1409 63.8415 28.3189 63.5372 26.5467C63.5342 25.5873 63.4118 24.6325 63.1591 23.6894L62.9269 23.7516C61.713 19.1884 59.516 15.026 56.5764 11.5049L56.6083 11.4464C56.5589 11.4195 56.5093 11.3926 56.4597 11.3659C50.5897 4.4147 41.8104 0 32 0C14.3269 0 0 14.3269 0 32C0 33.28 0.0751512 34.5424 0.221282 35.7831C0.183182 35.9159 0.14584 36.0489 0.109257 36.182L0.276851 36.2281C0.457594 37.5974 0.724915 38.9394 1.07313 40.2484L0.840889 40.3106C1.08836 41.2342 1.44988 42.1057 1.91313 42.9242C6.37793 55.2182 18.1634 64 32 64C32.2584 64 32.516 63.9969 32.7729 63.9908C32.8578 64.0289 32.9431 64.0662 33.0288 64.103L33.0806 63.9821C41.2355 63.7115 48.6177 60.3896 54.1222 55.1217L54.3491 55.3485C55.6318 54.0658 56.6589 52.6986 57.4689 51.3764ZM61.132 26.7289C60.2246 21.6803 58.0369 17.0761 54.9171 13.2645C48.2596 9.79642 40.3355 8.59854 32.4613 9.9885C32.5419 10.0096 32.6225 10.031 32.703 10.0526C33.4275 10.2467 33.9907 10.502 34.488 10.7403C34.5642 10.7769 34.6379 10.8125 34.71 10.8474C35.1165 11.0438 35.4695 11.2145 35.9045 11.3702L35.0955 13.6298C34.5303 13.4274 34.0536 13.1964 33.6475 12.9997C33.5799 12.9669 33.5143 12.9351 33.4505 12.9045C32.995 12.6862 32.5901 12.507 32.0819 12.3708C30.4204 11.9256 28.7644 11.5829 27.1248 11.338C26.8607 11.4255 26.5971 11.5161 26.3339 11.6098C24.637 13.9959 23.2148 16.771 22.1357 19.8921L19.8674 19.1079C20.5945 17.0048 21.4736 15.0358 22.4883 13.217C21.617 13.6374 20.7537 14.0936 19.9006 14.5861C11.1979 19.6106 5.24542 27.4373 2.66523 35.9796C2.93998 38.0242 3.42344 40.0026 4.09349 41.8927C5.85046 44.8546 9.42957 47.1755 14.3623 48.4783C16.1563 48.9522 18.105 49.2829 20.1686 49.4577C19.6587 48.2391 19.2221 47.0286 18.8562 45.858L21.1469 45.142C21.6056 46.6093 22.1716 48.1128 22.8457 49.5947C27.0428 49.6734 31.6118 49.1385 36.2571 47.8938C44.2959 45.7398 51.0788 41.8771 55.5242 37.4859C56.2576 36.7614 56.9222 36.0285 57.5161 35.2918C56.9522 32.9482 56.0559 30.6415 54.9427 28.5675L57.0573 27.4325C57.9335 29.0649 58.6993 30.8579 59.2907 32.7265C60.4728 30.6838 61.0992 28.6525 61.132 26.7289ZM29.158 8.24529C36.3451 6.42268 43.7124 6.66541 50.3648 8.78441C46.6567 5.84714 42.2285 3.7794 37.388 2.88921C34.3657 3.99423 31.5793 5.8065 29.158 8.24529ZM9.70179 12.5327C13.3898 11.3621 17.4996 10.7797 21.816 10.879C20.7653 11.3731 19.7258 11.9157 18.7006 12.5077C11.3384 16.7582 5.81076 22.9128 2.47598 29.8626C2.94795 23.2482 5.59327 17.2348 9.70179 12.5327ZM60.5625 39.7964C60.5172 38.4905 60.3557 37.1712 60.0979 35.8652C60.6433 35.118 61.1321 34.3573 61.5582 33.5873C61.4452 35.725 61.1054 37.8026 60.5625 39.7964ZM13.131 9.19278C17.0251 8.44183 21.2143 8.26046 25.52 8.71467C27.6224 6.11608 30.0703 3.98841 32.7847 2.4102C32.524 2.40341 32.2624 2.4 32 2.4C24.829 2.4 18.2535 4.95004 13.131 9.19278ZM21.3095 51.9412C23.0848 55.4726 25.4949 58.8891 28.6055 61.4075C19.6074 60.3801 11.8347 55.3181 7.14137 48.0753C9.06059 49.2416 11.3036 50.1528 13.7494 50.7988C16.0736 51.4126 18.6177 51.7995 21.3095 51.9412ZM42.515 14.3106C42.2561 13.9418 41.8126 13.7491 41.3664 13.8116C40.9202 13.874 40.5467 14.1811 40.399 14.6068C39.4588 17.3175 38.7368 19.1703 37.8097 20.4734C37.1257 21.4349 36.3218 22.1059 35.1561 22.5474C35.0849 22.4136 35.0048 22.2823 34.915 22.1563C34.5385 21.6275 33.9074 21.0889 32.994 21.0467C32.1198 21.0063 31.2986 21.439 30.5548 22.1086C29.8002 22.7879 28.9916 23.8274 28.1078 25.2991C26.6922 27.6563 24.3155 28.3341 22.4115 28.2322C21.709 28.1946 21.1465 28.0532 20.772 27.8993C21.1714 27.3563 21.363 26.6794 21.1212 25.9726C20.8162 25.0811 19.9765 24.6328 19.1948 24.5637C17.5074 24.4143 15.8236 25.7554 14.9619 28.3858C14.853 28.7182 14.7475 29.0372 14.6465 29.3424L14.6464 29.3428L14.6463 29.3431C14.3941 30.1052 14.1702 30.7817 13.9932 31.3689C13.7468 32.1863 13.5578 32.9342 13.5088 33.607C13.4577 34.3095 13.5536 35.0003 13.9398 35.641C13.9497 35.6575 13.9598 35.6738 13.97 35.69L13.9628 35.6931C13.556 35.8711 13.121 36.0614 12.7886 36.2696C12.4609 36.4748 11.9058 36.8941 11.8126 37.6536C11.7281 38.3415 12.0836 38.9098 12.3432 39.2619C12.8897 40.0034 13.7882 40.8784 14.615 41.4578C15.0106 41.735 15.5092 42.0309 16.0139 42.1467C16.2696 42.2053 16.6604 42.2494 17.0692 42.0887C17.5388 41.9043 17.8381 41.5281 17.9731 41.1157C18.0126 40.9952 18.0328 40.8691 18.0328 40.7422C18.0328 40.4443 18.1148 39.9623 18.3167 39.4381C18.517 38.9182 18.803 38.441 19.1451 38.1022C19.4759 37.7747 19.8306 37.6002 20.226 37.5788C20.6313 37.5569 21.2466 37.6871 22.1037 38.2909C22.4085 38.5056 22.7958 38.5665 23.1517 38.4556C23.5077 38.3447 23.7919 38.0747 23.9208 37.7248C24.0384 37.4056 24.2035 37.2637 24.4312 37.1815C24.7163 37.0786 25.2082 37.0381 25.9823 37.2073C27.5353 37.5467 29.7444 38.621 32.5001 40.4905C32.8727 40.7433 33.3555 40.7662 33.7504 40.5498C34.6483 40.0578 35.7751 39.652 37.0008 39.2783C37.6086 39.093 38.225 38.9201 38.8377 38.749L38.9229 38.7252C39.502 38.5634 40.0801 38.4019 40.6219 38.2375C41.7138 37.9061 42.8364 37.5141 43.6045 36.965C44.0004 36.682 44.4172 36.278 44.6253 35.7066C44.8499 35.0894 44.7639 34.4667 44.4929 33.915C43.9669 32.8447 44.2462 32.4295 44.2635 32.4106L44.264 32.41C44.2721 32.401 44.3087 32.3605 44.4471 32.3573C44.605 32.3537 44.8924 32.4047 45.2956 32.6391C45.9935 33.045 46.2518 33.6506 46.461 34.2197L46.4789 34.2684C46.5228 34.3888 46.5836 34.5555 46.6471 34.6916C46.6854 34.7738 46.7491 34.8999 46.8452 35.0272C46.9368 35.1485 47.124 35.3599 47.4372 35.4828C48.2257 35.7924 48.796 35.2521 48.9231 35.1212C49.1052 34.9339 49.2573 34.6951 49.3796 34.4883C50.0365 33.3769 50.1912 31.781 49.9329 30.3545C49.6715 28.9112 48.9283 27.3291 47.4336 26.459C47.2503 26.3522 47.042 26.296 46.8299 26.296C45.9765 26.296 45.4889 26.8943 45.2856 27.188C45.2556 27.2312 45.2271 27.2748 45.2 27.318C45.1256 27.1301 45.0517 26.9114 44.9815 26.6667C44.7777 25.9561 44.6272 25.1032 44.5745 24.2988C44.52 23.4675 44.5785 22.811 44.7047 22.4321L44.7089 22.4196C44.955 22.4966 45.2499 22.6452 45.5987 22.8717C45.9109 23.0745 46.1809 23.2792 46.4646 23.4942C46.6156 23.6086 46.7704 23.726 46.9375 23.8475C47.1506 24.0025 47.3972 24.1727 47.6464 24.302C47.8612 24.4134 48.2691 24.5994 48.751 24.5493C49.3876 24.4832 49.8048 24.0611 50.0029 23.6055C50.1662 23.2302 50.2 22.8088 50.2 22.4428C50.2 22.1479 50.0914 21.8633 49.8949 21.6433C48.9329 20.5666 47.5518 19.2864 46.2541 18.0835C46.092 17.9333 45.9313 17.7843 45.7729 17.637C44.2799 16.2498 43.0456 15.0665 42.515 14.3106ZM20.3344 27.6486C20.3347 27.6486 20.3374 27.6512 20.3419 27.6568C20.3364 27.6515 20.3342 27.6487 20.3344 27.6486ZM45.5996 27.9979C45.6033 28.0006 45.605 28.0017 45.605 28.0014C45.6049 28.001 45.6005 27.9974 45.592 27.992C45.5951 27.9944 45.5976 27.9964 45.5996 27.9979ZM39.7653 21.8647C40.63 20.6493 41.3063 19.1244 41.977 17.324C42.6332 17.9905 43.3934 18.7022 44.1392 19.3952C44.2987 19.5434 44.4584 19.6915 44.6178 19.8393L44.7745 19.9846C44.1936 19.9146 43.642 20.0759 43.2038 20.4498C42.7945 20.799 42.5642 21.2638 42.4276 21.6738C42.1562 22.4891 42.1177 23.5104 42.1796 24.4557C42.2433 25.4278 42.4226 26.4501 42.6746 27.3285C42.8007 27.7683 42.9505 28.1911 43.1233 28.5633C43.2887 28.9196 43.508 29.3018 43.8014 29.6004C43.9181 29.7191 44.062 29.8487 44.2297 29.9645C43.5839 30.0082 42.975 30.2621 42.4906 30.7929C41.5096 31.868 41.6208 33.4828 42.3165 34.9275C42.2908 34.9505 42.2558 34.979 42.2088 35.0126C41.8033 35.3024 41.0443 35.6012 39.9249 35.941C39.4095 36.0974 38.855 36.2523 38.2673 36.4164L38.192 36.4375C37.5815 36.608 36.9394 36.788 36.3009 36.9826C35.2755 37.2953 34.217 37.658 33.2572 38.1102C30.6666 36.4083 28.3611 35.2705 26.4947 34.8626C25.4888 34.6428 24.4916 34.6081 23.6163 34.9241C23.1449 35.0943 22.7415 35.3546 22.4128 35.6925C21.6236 35.3136 20.8485 35.1416 20.0962 35.1823C18.9955 35.2419 18.1118 35.7479 17.4564 36.3968C16.8123 37.0346 16.3643 37.8299 16.0772 38.5754C15.976 38.8379 15.8908 39.1048 15.8229 39.3689C15.3423 39.0062 14.835 38.5187 14.4761 38.0919C14.6085 38.031 14.77 37.9597 14.9686 37.8727L14.9996 37.8592C15.4444 37.6645 16.0059 37.4188 16.6465 37.0929C17.0381 36.8936 17.2895 36.4962 17.3018 36.0569C17.3142 35.6177 17.0854 35.2068 16.7055 34.986C16.2448 34.7181 16.0705 34.5269 15.9953 34.4021C15.9353 34.3026 15.8761 34.1446 15.9025 33.7812C15.9311 33.3881 16.0525 32.853 16.2911 32.0616C16.4583 31.507 16.6666 30.8775 16.9134 30.1315L16.9136 30.1309C17.0167 29.8195 17.1264 29.4879 17.2427 29.1329C17.5199 28.2865 17.8397 27.7672 18.1294 27.4493C18.0328 27.7309 18.0056 28.0475 18.0858 28.389C18.2361 29.0291 18.7051 29.4553 19.0812 29.7094C19.8694 30.2417 21.046 30.5625 22.2832 30.6287C24.8019 30.7636 28.167 29.8623 30.1653 26.5347C30.9886 25.1639 31.6543 24.348 32.1605 23.8923C32.5836 23.5115 32.812 23.4545 32.8697 23.4458C32.887 23.4591 32.9174 23.4885 32.9601 23.5485C33.0756 23.7107 33.1798 23.9709 33.2353 24.2534C33.2982 24.5731 33.4884 24.8536 33.7622 25.0302C34.036 25.2069 34.3699 25.2647 34.6871 25.1902C36.9773 24.6524 38.5466 23.5778 39.7653 21.8647ZM48.7889 22.1885C48.7862 22.1875 48.7826 22.1861 48.7782 22.1847C48.7902 22.1902 48.7959 22.1921 48.7958 22.1917C48.7957 22.1914 48.7934 22.1903 48.7889 22.1885ZM46.502 30.5644C46.2737 30.4317 46.0363 30.3173 45.7944 30.2248C46.145 30.1034 46.3879 29.8845 46.5405 29.7133C46.6998 29.5346 46.8186 29.3419 46.901 29.1982L46.9176 29.169C47.2306 29.593 47.4562 30.1467 47.5713 30.7822C47.6159 31.0287 47.6407 31.2702 47.649 31.5016C47.3523 31.1663 46.9779 30.8412 46.502 30.5644ZM47.2888 28.5149C47.2888 28.5153 47.2855 28.5195 47.279 28.5264C47.2855 28.518 47.2888 28.5146 47.2888 28.5149ZM48.8236 33.6803C48.8236 33.6802 48.823 33.6788 48.8217 33.6763L48.8223 33.6775C48.8232 33.6795 48.8237 33.6804 48.8236 33.6803ZM14.1682 37.6707C14.1683 37.6707 14.1696 37.6734 14.1717 37.6786C14.169 37.6732 14.168 37.6706 14.1682 37.6707ZM14.0135 38.3365C14.0067 38.3427 14.0026 38.3458 14.0023 38.3457C14.0019 38.3457 14.0053 38.3426 14.0135 38.3365ZM19.0195 26.9599C19.0202 26.9601 19.0206 26.9602 19.0206 26.9602C19.0207 26.9601 19.0193 26.9596 19.0161 26.9589C19.0175 26.9594 19.0187 26.9597 19.0195 26.9599ZM18.8489 26.4698C18.8482 26.471 18.8473 26.4724 18.8464 26.4742C18.8499 26.4694 18.8512 26.467 18.8509 26.467C18.8508 26.467 18.85 26.468 18.8489 26.4698ZM32.8524 23.436C32.8524 23.4353 32.8561 23.4363 32.8633 23.4412C32.856 23.4392 32.8523 23.4367 32.8524 23.436Z" fill="white"/>
</g></symbol><symbol id="services" viewBox="0 0 52 64"><g fill="none">
<path fill-rule="evenodd" clip-rule="evenodd" d="M14.0008 11.2H4.00078C3.55895 11.2 3.20078 11.5582 3.20078 12V60C3.20078 60.4418 3.55895 60.8 4.00078 60.8H48.0008C48.4426 60.8 48.8008 60.4418 48.8008 60V12C48.8008 11.5582 48.4426 11.2 48.0008 11.2H38.0008H14.0008ZM39.1232 8.8H48.0008C49.7681 8.8 51.2008 10.2327 51.2008 12V60C51.2008 61.7673 49.7681 63.2 48.0008 63.2H4.00078C2.23347 63.2 0.800781 61.7673 0.800781 60V12C0.800781 10.2327 2.23347 8.8 4.00078 8.8H12.8783C13.4663 4.28598 17.3265 0.800003 22.0008 0.800003H30.0008C34.6751 0.800003 38.5352 4.28598 39.1232 8.8ZM36.6952 8.8C36.1285 5.61679 33.3469 3.2 30.0008 3.2H22.0008C18.6547 3.2 15.8731 5.61679 15.3063 8.8H36.6952ZM12.0008 16.8C10.2335 16.8 8.80078 18.2327 8.80078 20V24C8.80078 25.7673 10.2335 27.2 12.0008 27.2H16.0008C17.7681 27.2 19.2008 25.7673 19.2008 24V20C19.2008 18.2327 17.7681 16.8 16.0008 16.8H12.0008ZM11.2008 20C11.2008 19.5582 11.559 19.2 12.0008 19.2H16.0008C16.4426 19.2 16.8008 19.5582 16.8008 20V24C16.8008 24.4418 16.4426 24.8 16.0008 24.8H12.0008C11.559 24.8 11.2008 24.4418 11.2008 24V20ZM42.0008 21.2H24.0008V18.8H42.0008V21.2ZM24.0008 22.8H33.0008V25.2H24.0008V22.8ZM24.0008 35.2H40.0008V32.8H24.0008V35.2ZM40.0008 36.8H24.0008V39.2H40.0008V36.8ZM12.0008 30.8C10.2335 30.8 8.80078 32.2327 8.80078 34V38C8.80078 39.7673 10.2335 41.2 12.0008 41.2H16.0008C17.7681 41.2 19.2008 39.7673 19.2008 38V34C19.2008 32.2327 17.7681 30.8 16.0008 30.8H12.0008ZM11.2008 34C11.2008 33.5582 11.559 33.2 12.0008 33.2H16.0008C16.4426 33.2 16.8008 33.5582 16.8008 34V38C16.8008 38.4418 16.4426 38.8 16.0008 38.8H12.0008C11.559 38.8 11.2008 38.4418 11.2008 38V34ZM36.0008 49.2H24.0008V46.8H36.0008V49.2ZM8.80078 48C8.80078 46.2327 10.2335 44.8 12.0008 44.8H16.0008C17.7681 44.8 19.2008 46.2327 19.2008 48V52C19.2008 53.7673 17.7681 55.2 16.0008 55.2H12.0008C10.2335 55.2 8.80078 53.7673 8.80078 52V48ZM12.0008 47.2C11.559 47.2 11.2008 47.5582 11.2008 48V52C11.2008 52.4418 11.559 52.8 12.0008 52.8H16.0008C16.4426 52.8 16.8008 52.4418 16.8008 52V48C16.8008 47.5582 16.4426 47.2 16.0008 47.2H12.0008ZM42.0008 50.8V53.2H24.0008V50.8H42.0008Z" fill="white"/>
</g></symbol><symbol id="settings" viewBox="0 0 489.95 485.55"><title>settings</title><path class="cls-1" d="M239.9,4.15l-24.5,10.1a25.67,25.67,0,0,0-13.9,33.5l6.3,15.2a156,156,0,0,0-32.2,32.2l-15.2-6.3a25.65,25.65,0,0,0-33.5,13.9l-10.2,24.5a25.64,25.64,0,0,0,13.9,33.5l22.5,9.3a9.89,9.89,0,1,0,7.5-18.3l-22.5-9.3a5.93,5.93,0,0,1-3.2-7.7l10.2-24.5a5.9,5.9,0,0,1,7.7-3.2l22.5,9.3a9.87,9.87,0,0,0,12-3.6,135.53,135.53,0,0,1,38.1-38.1,10,10,0,0,0,3.7-12l-9.3-22.5a6,6,0,0,1,3.2-7.7l24.5-10.1a5.9,5.9,0,0,1,7.7,3.2l9.3,22.5A9.74,9.74,0,0,0,275.6,54a137.22,137.22,0,0,1,53.8,0,10,10,0,0,0,11.1-5.9l9.3-22.5a5.93,5.93,0,0,1,7.7-3.2L382,32.55a5.9,5.9,0,0,1,3.2,7.7l-9.3,22.5a9.87,9.87,0,0,0,3.6,12,135.53,135.53,0,0,1,38.1,38.1,10,10,0,0,0,12,3.7l22.5-9.3a5.9,5.9,0,0,1,7.7,3.2L469.9,135a5.9,5.9,0,0,1-3.2,7.7L444.2,152a9.85,9.85,0,0,0-5.9,11.1,137.22,137.22,0,0,1,0,53.8,10,10,0,0,0,5.9,11.1l22.5,9.3a5.93,5.93,0,0,1,3.2,7.7l-10.2,24.5a5.93,5.93,0,0,1-7.7,3.2l-22.5-9.3a9.87,9.87,0,0,0-12,3.6,135.53,135.53,0,0,1-38.1,38.1,10,10,0,0,0-3.7,12l9.3,22.5a5.9,5.9,0,0,1-3.2,7.7l-24.5,10.1a5.9,5.9,0,0,1-7.7-3.2l-9.3-22.5a9.89,9.89,0,1,0-18.3,7.5l9.3,22.5a25.6,25.6,0,0,0,13.9,13.9,26,26,0,0,0,9.8,2,25.63,25.63,0,0,0,9.8-2l24.5-10.1A25.65,25.65,0,0,0,403.2,332l-6.3-15.2a156,156,0,0,0,32.2-32.2l15.2,6.3A25.64,25.64,0,0,0,477.8,277l10.2-24.5A25.64,25.64,0,0,0,474.1,219l-15.2-6.3a157.66,157.66,0,0,0,0-45.5l15.2-6.3a25.65,25.65,0,0,0,13.9-33.5l-10.1-24.5A25.65,25.65,0,0,0,444.4,89l-15.2,6.3a155.52,155.52,0,0,0-32.1-32.2l6.3-15.2a25.65,25.65,0,0,0-13.9-33.5L365,4.15A25.64,25.64,0,0,0,331.5,18l-6.3,15.2a157.66,157.66,0,0,0-45.5,0L273.4,18a25.65,25.65,0,0,0-33.5-13.9Z" transform="translate(0 -2.2)"/><path class="cls-1" d="M382.9,189.25a80.58,80.58,0,0,0-80.5-79.9h-.6a80.58,80.58,0,0,0-80,81.1,9.9,9.9,0,0,0,9.9,9.8h.1a9.8,9.8,0,0,0,9.8-10,60.78,60.78,0,0,1,60.3-61.2h.4a60.75,60.75,0,0,1,.4,121.5,9.8,9.8,0,0,0-9.8,10,9.9,9.9,0,0,0,9.9,9.8h.1A80.6,80.6,0,0,0,382.9,189.25Z" transform="translate(0 -2.2)"/><path class="cls-1" d="M135.3,487.75h19.3a21.42,21.42,0,0,0,21.4-21.4v-9.9a113.4,113.4,0,0,0,27.4-11.4l7,7a21.35,21.35,0,0,0,15.1,6.3,20.94,20.94,0,0,0,15.1-6.3l13.6-13.6a21.35,21.35,0,0,0,6.3-15.1,20.94,20.94,0,0,0-6.3-15.1l-7-7a113.4,113.4,0,0,0,11.4-27.4h9.9a21.42,21.42,0,0,0,21.4-21.4v-19.3a21.42,21.42,0,0,0-21.4-21.4h-9.9a113.4,113.4,0,0,0-11.4-27.4l7-7a21.35,21.35,0,0,0,6.3-15.1,20.94,20.94,0,0,0-6.3-15.1l-13.6-13.6a21.35,21.35,0,0,0-15.1-6.3,20.94,20.94,0,0,0-15.1,6.3l-7,7a113.4,113.4,0,0,0-27.4-11.4v-9.9a21.42,21.42,0,0,0-21.4-21.4H135.3a21.42,21.42,0,0,0-21.4,21.4v9.9a113.4,113.4,0,0,0-27.4,11.4l-7-7a21.35,21.35,0,0,0-15.1-6.3,20.94,20.94,0,0,0-15.1,6.3l-13.6,13.6a21.43,21.43,0,0,0,0,30.2l7,7a113.4,113.4,0,0,0-11.4,27.4H21.4A21.42,21.42,0,0,0,0,333.15v19.3a21.42,21.42,0,0,0,21.4,21.4h9.9a113.4,113.4,0,0,0,11.4,27.4l-7,7a21.43,21.43,0,0,0,0,30.2l13.6,13.6a21.35,21.35,0,0,0,15.1,6.3,20.94,20.94,0,0,0,15.1-6.3l7-7a113.4,113.4,0,0,0,27.4,11.4v9.9A21.55,21.55,0,0,0,135.3,487.75Zm-44.7-63.4a10.16,10.16,0,0,0-5.5-1.7,9.84,9.84,0,0,0-7,2.9L65.6,438a1.46,1.46,0,0,1-2.2,0l-13.6-13.6a1.57,1.57,0,0,1,0-2.2l12.5-12.5a9.85,9.85,0,0,0,1.2-12.5A96.44,96.44,0,0,1,48.9,362a10,10,0,0,0-9.7-8H21.5a1.58,1.58,0,0,1-1.6-1.6v-19.3a1.58,1.58,0,0,1,1.6-1.6H39.2a9.85,9.85,0,0,0,9.7-8,96.44,96.44,0,0,1,14.6-35.2,10,10,0,0,0-1.2-12.5l-12.5-12.5a1.57,1.57,0,0,1,0-2.2l13.6-13.6a1.46,1.46,0,0,1,2.2,0l12.5,12.7a9.85,9.85,0,0,0,12.5,1.2,96.44,96.44,0,0,1,35.2-14.6,10,10,0,0,0,8-9.7v-17.7a1.58,1.58,0,0,1,1.6-1.6h19.3a1.58,1.58,0,0,1,1.6,1.6v17.7a9.85,9.85,0,0,0,8,9.7,96.44,96.44,0,0,1,35.2,14.6,10,10,0,0,0,12.5-1.2l12.5-12.5a1.46,1.46,0,0,1,2.2,0l13.6,13.6a1.46,1.46,0,0,1,0,2.2L227.8,276a9.85,9.85,0,0,0-1.2,12.5,96.44,96.44,0,0,1,14.6,35.2,10,10,0,0,0,9.7,8h17.7a1.58,1.58,0,0,1,1.6,1.6v19.3a1.58,1.58,0,0,1-1.6,1.6H250.9a9.85,9.85,0,0,0-9.7,8,96.44,96.44,0,0,1-14.6,35.2,10,10,0,0,0,1.2,12.5l12.5,12.5a1.46,1.46,0,0,1,0,2.2l-13.6,13.6a1.46,1.46,0,0,1-2.2,0L212,425.75a9.85,9.85,0,0,0-12.5-1.2,96.44,96.44,0,0,1-35.2,14.6,10,10,0,0,0-8,9.7v17.7a1.58,1.58,0,0,1-1.6,1.6H135.4a1.58,1.58,0,0,1-1.6-1.6v-17.7a9.85,9.85,0,0,0-8-9.7A100.42,100.42,0,0,1,90.6,424.35Z" transform="translate(0 -2.2)"/><path class="cls-1" d="M203.7,343a58.75,58.75,0,1,0-58.7,58.8A58.9,58.9,0,0,0,203.7,343ZM106,343a39,39,0,1,1,39,39A39.05,39.05,0,0,1,106,343Z" transform="translate(0 -2.2)"/></symbol><symbol id="twitter" viewBox="0 0 612 612"><g style="enable-background:new 0 0 612 612;">
<g>
	<g>
		<path fill="#ffffff" d="M612,116.258c-22.525,9.981-46.694,16.75-72.088,19.772c25.929-15.527,45.777-40.155,55.184-69.411
			c-24.322,14.379-51.169,24.82-79.775,30.48c-22.907-24.437-55.49-39.658-91.63-39.658c-69.334,0-125.551,56.217-125.551,125.513
			c0,9.828,1.109,19.427,3.251,28.606C197.065,206.32,104.556,156.337,42.641,80.386c-10.823,18.51-16.98,40.078-16.98,63.101
			c0,43.559,22.181,81.993,55.835,104.479c-20.575-0.688-39.926-6.348-56.867-15.756v1.568c0,60.806,43.291,111.554,100.693,123.104
			c-10.517,2.83-21.607,4.398-33.08,4.398c-8.107,0-15.947-0.803-23.634-2.333c15.985,49.907,62.336,86.199,117.253,87.194
			c-42.947,33.654-97.099,53.655-155.916,53.655c-10.134,0-20.116-0.612-29.944-1.721c55.567,35.681,121.536,56.485,192.438,56.485
			c230.948,0,357.188-191.291,357.188-357.188l-0.421-16.253C573.872,163.526,595.211,141.422,612,116.258z"/>
	</g>
</g>
</g></symbol><symbol id="vk" viewBox="0 0 96 96"><g style="enable-background:new 0 0 96 96;">
<g>
	<path fill="#ffffff" d="M92.499,65.178c-2.873-3.446-6.254-6.387-9.453-9.51c-2.886-2.815-3.068-4.448-0.748-7.697
		c2.532-3.546,5.255-6.956,7.81-10.486c2.385-3.299,4.823-6.589,6.078-10.539c0.796-2.513,0.092-3.623-2.485-4.063
		c-0.444-0.077-0.903-0.081-1.355-0.081l-15.289-0.018c-1.883-0.028-2.924,0.793-3.59,2.462c-0.899,2.256-1.826,4.51-2.897,6.687
		c-2.43,4.936-5.144,9.707-8.949,13.747c-0.839,0.891-1.767,2.017-3.169,1.553c-1.754-0.64-2.271-3.53-2.242-4.507l-0.015-17.647
		c-0.34-2.521-0.899-3.645-3.402-4.135l-15.882,0.003c-2.12,0-3.183,0.819-4.315,2.145c-0.653,0.766-0.85,1.263,0.492,1.517
		c2.636,0.5,4.121,2.206,4.515,4.849c0.632,4.223,0.588,8.463,0.224,12.703c-0.107,1.238-0.32,2.473-0.811,3.629
		c-0.768,1.817-2.008,2.187-3.637,1.069c-1.475-1.012-2.511-2.44-3.525-3.874c-3.809-5.382-6.848-11.186-9.326-17.285
		c-0.716-1.762-1.951-2.83-3.818-2.859c-4.587-0.073-9.175-0.085-13.762,0.004c-2.76,0.052-3.583,1.392-2.459,3.894
		c4.996,11.113,10.557,21.917,17.816,31.759c3.727,5.051,8.006,9.51,13.534,12.67c6.265,3.582,13.009,4.66,20.112,4.328
		c3.326-0.156,4.325-1.021,4.479-4.336c0.104-2.268,0.361-4.523,1.48-6.561c1.098-2,2.761-2.381,4.678-1.137
		c0.959,0.623,1.767,1.416,2.53,2.252c1.872,2.048,3.677,4.158,5.62,6.137c2.437,2.48,5.324,3.945,8.954,3.646L93.744,75.5
		c2.264-0.148,3.438-2.924,2.138-5.451C94.969,68.279,93.771,66.703,92.499,65.178z"/>
</g>
</g></symbol></svg>